<svg width="120" height="120" viewBox="0 0 120 120" fill="none" xmlns="http://www.w3.org/2000/svg">
<path d="M60 0L95.2671 11.459L117.063 41.459V78.541L95.2671 108.541L60 120L24.7329 108.541L2.93661 78.541V41.459L24.7329 11.459L60 0Z" fill="#FCD043"/>
<path d="M27.9576 59.2218H30.8136C31.9056 59.2218 32.8716 59.4318 32.8716 60.7058C32.8716 62.5258 31.1076 62.6798 30.4496 62.6798H27.2296L27.9576 59.2218ZM25.7176 63.7998H30.6596C32.6336 63.7998 34.2016 62.6238 34.2016 60.7058C34.2016 59.6418 33.6136 58.8998 32.7036 58.6338V58.6058C33.8796 58.4238 34.6076 57.3038 34.6076 56.1978C34.6076 54.6858 33.7816 53.8038 31.8216 53.8038H27.8036L25.7176 63.7998ZM28.8536 54.9238H31.3176C32.1436 54.9238 33.2776 55.0218 33.2776 56.1978C33.2776 57.4438 32.5356 58.1018 31.1496 58.1018H28.1816L28.8536 54.9238ZM36.6316 60.9298C36.6316 59.4318 37.5836 57.4438 39.4036 57.4438C40.7056 57.4438 41.3076 58.3538 41.3076 59.4878C41.3076 60.9158 40.3556 62.9178 38.6196 62.9178C37.3176 62.9178 36.6316 62.1198 36.6316 60.9298ZM35.4416 60.9438C35.4416 62.6938 36.5896 63.9678 38.4936 63.9678C41.0276 63.9678 42.4976 61.7558 42.4976 59.3898C42.4976 57.4578 41.4196 56.3938 39.4876 56.3938C36.9536 56.3938 35.4416 58.5778 35.4416 60.9438ZM44.6707 60.9298C44.6707 59.4318 45.6227 57.4438 47.4427 57.4438C48.7447 57.4438 49.3467 58.3538 49.3467 59.4878C49.3467 60.9158 48.3947 62.9178 46.6587 62.9178C45.3567 62.9178 44.6707 62.1198 44.6707 60.9298ZM43.4807 60.9438C43.4807 62.6938 44.6287 63.9678 46.5327 63.9678C49.0667 63.9678 50.5367 61.7558 50.5367 59.3898C50.5367 57.4578 49.4587 56.3938 47.5267 56.3938C44.9927 56.3938 43.4807 58.5778 43.4807 60.9438ZM51.2117 63.7998H52.4017L52.9477 61.2238L54.3757 59.9498L55.7897 63.7998H57.1197L55.3277 59.2358L58.4777 56.5618H56.9237L53.2837 59.7118L53.2557 59.6838L54.5017 53.8038H53.3257L51.2117 63.7998ZM61.8485 63.7998H63.0385L63.7245 60.5938C63.8365 60.0478 64.0045 59.3618 64.3265 58.8998C64.7045 58.3258 65.2085 57.8918 65.8665 57.7238C66.1465 57.6538 66.2865 57.6538 66.5805 57.6538C66.6925 57.6538 66.8185 57.6538 66.9305 57.6678L67.2105 56.3938C67.0705 56.3658 66.9305 56.3938 66.7905 56.3938C65.5725 56.3938 64.7185 57.1218 64.1585 58.1158H64.1305L64.4805 56.5618H63.3605L61.8485 63.7998ZM68.0086 60.9298C68.0086 59.4318 68.9606 57.4438 70.7806 57.4438C72.0826 57.4438 72.6846 58.3538 72.6846 59.4878C72.6846 60.9158 71.7326 62.9178 69.9966 62.9178C68.6946 62.9178 68.0086 62.1198 68.0086 60.9298ZM66.8186 60.9438C66.8186 62.6938 67.9666 63.9678 69.8706 63.9678C72.4046 63.9678 73.8746 61.7558 73.8746 59.3898C73.8746 57.4578 72.7966 56.3938 70.8646 56.3938C68.3306 56.3938 66.8186 58.5778 66.8186 60.9438ZM76.0476 60.9298C76.0476 59.4318 76.9996 57.4438 78.8196 57.4438C80.1216 57.4438 80.7236 58.3538 80.7236 59.4878C80.7236 60.9158 79.7716 62.9178 78.0356 62.9178C76.7336 62.9178 76.0476 62.1198 76.0476 60.9298ZM74.8576 60.9438C74.8576 62.6938 76.0056 63.9678 77.9096 63.9678C80.4436 63.9678 81.9136 61.7558 81.9136 59.3898C81.9136 57.4578 80.8356 56.3938 78.9036 56.3938C76.3696 56.3938 74.8576 58.5778 74.8576 60.9438ZM82.5887 63.7998H83.7787L84.5907 60.0058C84.7447 59.2918 84.8567 58.8578 85.3607 58.3678C85.7807 57.8918 86.4807 57.4438 87.1387 57.4438C87.7827 57.4438 88.1467 57.7938 88.1467 58.3958C88.1467 58.5638 88.0487 59.1098 87.9227 59.6698L87.0547 63.7998H88.2447L89.0427 60.0618C89.1687 59.4458 89.3227 58.8578 89.7147 58.4378C90.1207 57.9198 90.8627 57.4438 91.5347 57.4438C92.1647 57.4438 92.6407 57.8638 92.6407 58.4238C92.6407 58.6338 92.5847 58.9838 92.5287 59.2078L91.5207 63.7998H92.7107L93.6207 59.4598C93.7187 59.0538 93.8307 58.4378 93.8307 58.0178C93.8307 56.8418 92.8367 56.3938 91.8147 56.3938C90.8487 56.3938 89.8967 56.9258 89.3367 57.6958C89.1267 56.7578 88.4267 56.3938 87.5167 56.3938C86.5227 56.3938 85.6127 56.9118 84.9967 57.6678L84.9687 57.6398L85.2347 56.5618H84.1287L82.5887 63.7998Z" fill="#1B3B36"/>
<path d="M27.9576 59.2218H30.8136C31.9056 59.2218 32.8716 59.4318 32.8716 60.7058C32.8716 62.5258 31.1076 62.6798 30.4496 62.6798H27.2296L27.9576 59.2218ZM25.7176 63.7998H30.6596C32.6336 63.7998 34.2016 62.6238 34.2016 60.7058C34.2016 59.6418 33.6136 58.8998 32.7036 58.6338V58.6058C33.8796 58.4238 34.6076 57.3038 34.6076 56.1978C34.6076 54.6858 33.7816 53.8038 31.8216 53.8038H27.8036L25.7176 63.7998ZM28.8536 54.9238H31.3176C32.1436 54.9238 33.2776 55.0218 33.2776 56.1978C33.2776 57.4438 32.5356 58.1018 31.1496 58.1018H28.1816L28.8536 54.9238ZM36.6316 60.9298C36.6316 59.4318 37.5836 57.4438 39.4036 57.4438C40.7056 57.4438 41.3076 58.3538 41.3076 59.4878C41.3076 60.9158 40.3556 62.9178 38.6196 62.9178C37.3176 62.9178 36.6316 62.1198 36.6316 60.9298ZM35.4416 60.9438C35.4416 62.6938 36.5896 63.9678 38.4936 63.9678C41.0276 63.9678 42.4976 61.7558 42.4976 59.3898C42.4976 57.4578 41.4196 56.3938 39.4876 56.3938C36.9536 56.3938 35.4416 58.5778 35.4416 60.9438ZM44.6707 60.9298C44.6707 59.4318 45.6227 57.4438 47.4427 57.4438C48.7447 57.4438 49.3467 58.3538 49.3467 59.4878C49.3467 60.9158 48.3947 62.9178 46.6587 62.9178C45.3567 62.9178 44.6707 62.1198 44.6707 60.9298ZM43.4807 60.9438C43.4807 62.6938 44.6287 63.9678 46.5327 63.9678C49.0667 63.9678 50.5367 61.7558 50.5367 59.3898C50.5367 57.4578 49.4587 56.3938 47.5267 56.3938C44.9927 56.3938 43.4807 58.5778 43.4807 60.9438ZM51.2117 63.7998H52.4017L52.9477 61.2238L54.3757 59.9498L55.7897 63.7998H57.1197L55.3277 59.2358L58.4777 56.5618H56.9237L53.2837 59.7118L53.2557 59.6838L54.5017 53.8038H53.3257L51.2117 63.7998ZM61.8485 63.7998H63.0385L63.7245 60.5938C63.8365 60.0478 64.0045 59.3618 64.3265 58.8998C64.7045 58.3258 65.2085 57.8918 65.8665 57.7238C66.1465 57.6538 66.2865 57.6538 66.5805 57.6538C66.6925 57.6538 66.8185 57.6538 66.9305 57.6678L67.2105 56.3938C67.0705 56.3658 66.9305 56.3938 66.7905 56.3938C65.5725 56.3938 64.7185 57.1218 64.1585 58.1158H64.1305L64.4805 56.5618H63.3605L61.8485 63.7998ZM68.0086 60.9298C68.0086 59.4318 68.9606 57.4438 70.7806 57.4438C72.0826 57.4438 72.6846 58.3538 72.6846 59.4878C72.6846 60.9158 71.7326 62.9178 69.9966 62.9178C68.6946 62.9178 68.0086 62.1198 68.0086 60.9298ZM66.8186 60.9438C66.8186 62.6938 67.9666 63.9678 69.8706 63.9678C72.4046 63.9678 73.8746 61.7558 73.8746 59.3898C73.8746 57.4578 72.7966 56.3938 70.8646 56.3938C68.3306 56.3938 66.8186 58.5778 66.8186 60.9438ZM76.0476 60.9298C76.0476 59.4318 76.9996 57.4438 78.8196 57.4438C80.1216 57.4438 80.7236 58.3538 80.7236 59.4878C80.7236 60.9158 79.7716 62.9178 78.0356 62.9178C76.7336 62.9178 76.0476 62.1198 76.0476 60.9298ZM74.8576 60.9438C74.8576 62.6938 76.0056 63.9678 77.9096 63.9678C80.4436 63.9678 81.9136 61.7558 81.9136 59.3898C81.9136 57.4578 80.8356 56.3938 78.9036 56.3938C76.3696 56.3938 74.8576 58.5778 74.8576 60.9438ZM82.5887 63.7998H83.7787L84.5907 60.0058C84.7447 59.2918 84.8567 58.8578 85.3607 58.3678C85.7807 57.8918 86.4807 57.4438 87.1387 57.4438C87.7827 57.4438 88.1467 57.7938 88.1467 58.3958C88.1467 58.5638 88.0487 59.1098 87.9227 59.6698L87.0547 63.7998H88.2447L89.0427 60.0618C89.1687 59.4458 89.3227 58.8578 89.7147 58.4378C90.1207 57.9198 90.8627 57.4438 91.5347 57.4438C92.1647 57.4438 92.6407 57.8638 92.6407 58.4238C92.6407 58.6338 92.5847 58.9838 92.5287 59.2078L91.5207 63.7998H92.7107L93.6207 59.4598C93.7187 59.0538 93.8307 58.4378 93.8307 58.0178C93.8307 56.8418 92.8367 56.3938 91.8147 56.3938C90.8487 56.3938 89.8967 56.9258 89.3367 57.6958C89.1267 56.7578 88.4267 56.3938 87.5167 56.3938C86.5227 56.3938 85.6127 56.9118 84.9967 57.6678L84.9687 57.6398L85.2347 56.5618H84.1287L82.5887 63.7998Z" fill="black" fill-opacity="0.2"/>
</svg>
