<svg width="76" height="13" viewBox="0 0 76 13" fill="none" xmlns="http://www.w3.org/2000/svg">
<path d="M2.216 6.8H5.752C6.968 6.8 7.672 7.44 7.672 8.56C7.672 9.712 6.968 10.368 5.752 10.368H2.216V6.8ZM0.216 12H5.464C8.424 12 9.672 10.608 9.672 8.816C9.672 7.264 8.92 6.176 7.528 5.872V5.84C8.568 5.392 9.16 4.56 9.16 3.408C9.16 1.504 7.816 0.575999 5.768 0.575999H0.216V12ZM2.216 2.208H5.48C6.568 2.208 7.16 2.624 7.16 3.776C7.16 4.8 6.44 5.36 5.48 5.36H2.216V2.208ZM16.3296 9.216C16.3296 10.368 15.0816 10.784 14.2816 10.784C13.6416 10.784 12.6016 10.544 12.6016 9.728C12.6016 8.768 13.3056 8.48 14.0896 8.352C14.8896 8.208 15.7696 8.224 16.3296 7.856V9.216ZM18.1536 5.904C18.1536 4.16 16.4576 3.504 14.8416 3.504C13.0176 3.504 11.2096 4.128 11.0816 6.256H12.9056C12.9856 5.36 13.7056 4.944 14.7296 4.944C15.4656 4.944 16.4416 5.12 16.4416 6.064C16.4416 7.136 15.2736 6.992 13.9616 7.232C12.4256 7.408 10.7776 7.744 10.7776 9.808C10.7776 11.424 12.1216 12.224 13.6096 12.224C14.5856 12.224 15.7536 11.92 16.4736 11.216C16.6176 11.968 17.1456 12.224 17.8816 12.224C18.1856 12.224 18.7616 12.112 19.0336 12.016V10.752C18.8416 10.784 18.6976 10.784 18.5856 10.784C18.2496 10.784 18.1536 10.608 18.1536 10.16V5.904ZM20.1163 12H21.9403V7.12C21.9403 5.904 22.7243 4.944 23.9403 4.944C25.0123 4.944 25.5243 5.504 25.5563 6.8V12H27.3802V6.32C27.3802 4.464 26.2443 3.504 24.4523 3.504C23.3643 3.504 22.4203 4.064 21.8763 4.976L21.8443 4.944V3.728H20.1163V12ZM29.3518 12H31.1758V9.04L32.2638 7.984L34.7918 12H37.0158L33.5438 6.768L36.7118 3.728H34.4718L31.1758 7.072V0.575999H29.3518V12ZM38.1055 12H40.1055V6.848H45.3055V12H47.3055V0.575999H45.3055V5.12H40.1055V0.575999H38.1055V12ZM53.2364 10.784C51.6044 10.784 50.8844 9.296 50.8844 7.856C50.8844 6.432 51.6044 4.944 53.2364 4.944C54.8684 4.944 55.5884 6.432 55.5884 7.856C55.5884 9.296 54.8684 10.784 53.2364 10.784ZM53.2364 12.224C55.8924 12.224 57.4124 10.4 57.4124 7.856C57.4124 5.328 55.8924 3.504 53.2364 3.504C50.5804 3.504 49.0604 5.328 49.0604 7.856C49.0604 10.4 50.5804 12.224 53.2364 12.224ZM58.0968 5.088H59.4728V9.968C59.5048 11.344 59.8568 12.08 61.7608 12.08C62.1608 12.08 62.5448 12.016 62.9448 11.984V10.576C62.6888 10.64 62.4328 10.64 62.1768 10.64C61.3608 10.64 61.2968 10.256 61.2968 9.504V5.088H62.9448V3.728H61.2968V1.248H59.4728V3.728H58.0968V5.088ZM71.7609 8.336C72.0649 5.856 70.4649 3.504 67.8569 3.504C65.3929 3.504 63.8569 5.52 63.8569 7.872C63.8569 10.416 65.3129 12.224 67.9049 12.224C69.7129 12.224 71.2489 11.216 71.6489 9.408H69.9209C69.6009 10.32 68.9609 10.784 67.9049 10.784C66.3849 10.784 65.6809 9.632 65.6809 8.336H71.7609ZM65.6809 7.136C65.7289 5.904 66.5929 4.944 67.8569 4.944C69.0889 4.944 69.8729 5.984 69.9369 7.136H65.6809ZM73.1955 12H75.0195V0.575999H73.1955V12Z" fill="#FFFCF6"/>
</svg>
